<svg xmlns="http://www.w3.org/2000/svg" viewBox="0 0 800 1120" width="800" height="1120" fill="none">
  <rect width="800" height="1120" fill="#ffffff" />
  
  <!-- Header -->
  <rect x="60" y="50" width="160" height="36" rx="4" fill="#0f172a" />
  <rect x="60" y="100" width="120" height="16" rx="2" fill="#0ea5e9" />

  <!-- Contact Bar -->
  <rect x="60" y="130" width="80" height="10" rx="2" fill="#64748b" />
  <circle cx="155" cy="135" r="3" fill="#cbd5e1" />
  <rect x="170" y="130" width="100" height="10" rx="2" fill="#64748b" />
  <circle cx="285" cy="135" r="3" fill="#cbd5e1" />
  <rect x="300" y="130" width="120" height="10" rx="2" fill="#64748b" />

  <line x1="60" y1="160" x2="740" y2="160" stroke="#0f172a" stroke-width="2" />

  <!-- Avatar -->
  <rect x="650" y="45" width="90" height="110" rx="4" fill="#e2e8f0" />

  <!-- Section: Intro -->
  <rect x="60" y="200" width="8" height="18" rx="2" fill="#0ea5e9" />
  <rect x="76" y="202" width="100" height="14" rx="2" fill="#0f172a" />
  <line x1="60" y1="230" x2="740" y2="230" stroke="#e2e8f0" stroke-width="2" />

  <rect x="60" y="245" width="680" height="12" rx="2" fill="#334155" />
  <rect x="60" y="265" width="650" height="12" rx="2" fill="#334155" />
  <rect x="60" y="285" width="400" height="12" rx="2" fill="#334155" />

  <!-- Section: Work Exp -->
  <rect x="60" y="340" width="8" height="18" rx="2" fill="#0ea5e9" />
  <rect x="76" y="342" width="100" height="14" rx="2" fill="#0f172a" />
  <line x1="60" y1="370" x2="740" y2="370" stroke="#e2e8f0" stroke-width="2" />

  <rect x="60" y="385" width="200" height="14" rx="2" fill="#0f172a" />
  <rect x="640" y="385" width="100" height="12" rx="2" fill="#64748b" />
  <rect x="60" y="410" width="160" height="12" rx="2" fill="#475569" />

  <circle cx="70" cy="440" r="3" fill="#cbd5e1" />
  <rect x="85" y="435" width="630" height="10" rx="2" fill="#475569" />
  <circle cx="70" cy="455" r="3" fill="#cbd5e1" />
  <rect x="85" y="450" width="650" height="10" rx="2" fill="#475569" />
  <circle cx="70" cy="470" r="3" fill="#cbd5e1" />
  <rect x="85" y="465" width="480" height="10" rx="2" fill="#475569" />

  <rect x="60" y="515" width="180" height="14" rx="2" fill="#0f172a" />
  <rect x="640" y="515" width="100" height="12" rx="2" fill="#64748b" />
  <rect x="60" y="540" width="140" height="12" rx="2" fill="#475569" />

  <circle cx="70" cy="570" r="3" fill="#cbd5e1" />
  <rect x="85" y="565" width="600" height="10" rx="2" fill="#475569" />
  <circle cx="70" cy="585" r="3" fill="#cbd5e1" />
  <rect x="85" y="580" width="660" height="10" rx="2" fill="#475569" />

  <!-- Section: Project Exp -->
  <rect x="60" y="640" width="8" height="18" rx="2" fill="#0ea5e9" />
  <rect x="76" y="642" width="100" height="14" rx="2" fill="#0f172a" />
  <line x1="60" y1="670" x2="740" y2="670" stroke="#e2e8f0" stroke-width="2" />

  <rect x="60" y="685" width="220" height="14" rx="2" fill="#0f172a" />
  <rect x="640" y="685" width="100" height="12" rx="2" fill="#64748b" />
  <rect x="60" y="710" width="150" height="12" rx="2" fill="#475569" />
  
  <circle cx="70" cy="740" r="3" fill="#cbd5e1" />
  <rect x="85" y="735" width="620" height="10" rx="2" fill="#475569" />
  <circle cx="70" cy="755" r="3" fill="#cbd5e1" />
  <rect x="85" y="750" width="610" height="10" rx="2" fill="#475569" />

  <!-- Section: Education -->
  <rect x="60" y="810" width="8" height="18" rx="2" fill="#0ea5e9" />
  <rect x="76" y="812" width="100" height="14" rx="2" fill="#0f172a" />
  <line x1="60" y1="840" x2="740" y2="840" stroke="#e2e8f0" stroke-width="2" />

  <rect x="60" y="855" width="140" height="14" rx="2" fill="#0f172a" />
  <rect x="640" y="855" width="100" height="12" rx="2" fill="#64748b" />
  <rect x="60" y="880" width="220" height="12" rx="2" fill="#475569" />
</svg>
